<svg fill="none" height="24" viewBox="0 0 24 24" width="24" xmlns="http://www.w3.org/2000/svg"><path clip-rule="evenodd" d="m8.83 17h6.34c.2359-.6675.7002-1.2301 1.3108-1.5884.6106-.3582 1.3282-.4891 2.026-.3694s1.3307.4822 1.7871 1.0234c.4563.5413.7066 1.2264.7066 1.9344s-.2503 1.3931-.7066 1.9344c-.4564.5412-1.0893.9037-1.7871 1.0234s-1.4154-.0112-2.026-.3694c-.6106-.3583-1.0749-.9209-1.3108-1.5884h-6.34c-.23591.6675-.7002 1.2301-1.31081 1.5884-.61061.3582-1.32821.4891-2.02598.3694-.69776-.1197-1.33075-.4822-1.78708-1.0234-.45633-.5413-.70662-1.2264-.70662-1.9344s.25029-1.3931.70662-1.9344c.45633-.5412 1.08932-.9037 1.78708-1.0234.69777-.1197 1.41537.0112 2.02598.3694.61061.3583 1.0749.9209 1.31081 1.5884zm-5.83-12c0-1.105.895-2 1.994-2h12.012c1.101 0 1.994.888 1.994 2 0 1.105-.895 2-1.994 2h-12.012c-.26244.00027-.52234-.05133-.76477-.15182-.24244-.10049-.46263-.24789-.64792-.43374s-.33203-.40648-.43179-.64921c-.09976-.24274-.15057-.5028-.14952-.76523zm5 6c0-.2629.05183-.5232.15253-.7661.10069-.24281.24828-.46342.43432-.64918.18603-.18575.40686-.33301.64986-.43334s.50339-.15177.76629-.15138h8.994c.5304 0 1.0391.21071 1.4142.58579.3751.37507.5858.88381.5858 1.41421s-.2107 1.0391-.5858 1.4142-.8838.5858-1.4142.5858h-8.994c-.26304.0009-.52368-.0502-.76691-.1503-.24324-.1001-.46428-.2474-.65042-.4332-.18614-.1859-.33371-.4067-.43422-.6498s-.15198-.5037-.15145-.7667z" fill="#000" fill-rule="evenodd"/></svg>